# xmcd
#
# Track frame offsets:
# 150
# 13601
# 23115
# 45990
# 63653
# 81577
# 93502
# 112686
# 130389
# 152057
# 162985
# 175909
# 188644
# 205667
# 223896
#
# Disc length: 3306 seconds
#
# Revision: 0
# Processed by: cddbd v1.5PL3 Copyright (c) Steve Scherf et al.
# Submitted via: Audion 3.0.2 (http://www.panic.com/audion/)
#
DISCID=c70ce80f
DTITLE=Dimitri - Acoustic Journey
DYEAR=1900
DGENRE=
TTITLE0=Merrily Kissed the Quaker
TTITLE1=Wild Mountain Thyme
TTITLE2=Blue Chili
TTITLE3=Cowboy Waltz
TTITLE4=Valse en Skai
TTITLE5=Ole' Brother Hubbard
TTITLE6=A Young Sprout
TTITLE7=Sofia's Song
TTITLE8=Tango en Paraiso
TTITLE9=Ku'u Lei Awapushi Melemele
TTITLE10=Kalena Kai
TTITLE11=Keanae, Hi
TTITLE12=Whee Ha Swing
TTITLE13=Marley's Ghost
TTITLE14=Moontan
EXTD=
EXTT0=
EXTT1=
EXTT2=
EXTT3=
EXTT4=
EXTT5=
EXTT6=
EXTT7=
EXTT8=
EXTT9=
EXTT10=
EXTT11=
EXTT12=
EXTT13=
EXTT14=
PLAYORDER=
